# AST/ASF file generated using VICON BodyLanguage
# -----------------------------------------------
:version 1.10
:name VICON
:units
  mass 1.0
  length 0.45
  angle deg
:documentation
   .ast/.asf automatically generated from VICON data using
   VICON BodyBuilder and BodyLanguage model FoxedUp or BRILLIANT.MOD
:root
   order TX TY TZ RX RY RZ
   axis XYZ
   position 0 0 0  
   orientation 0 0 0 
:bonedata
  begin
     id 1 
     name lhipjoint
     direction 0.722297 -0.617336 0.311742 
     length 2.6635 
     axis 0 0 0  XYZ
  end
  begin
     id 2 
     name lfemur
     direction 0.34202 -0.939693 0  
     length 7.39349  
     axis 0 0 20  XYZ
    dof rx ry rz
    limits (-160.0 20.0)
           (-70.0 70.0)
           (-60.0 70.0)
  end
  begin
     id 3 
     name ltibia
     direction 0.34202 -0.939693 0   
     length 7.36294   
     axis 0 0 20   XYZ
    dof rx
    limits (-10.0 170.0)
  end
  begin
     id 4 
     name lfoot
     direction 0.104879 -0.288152 0.951824   
     length 2.16981   
     axis -90 7.62852e-016 20   XYZ
    dof rx rz
    limits (-45.0 90.0)
           (-70.0 20.0)
  end
  begin
     id 5 
     name ltoes
     direction 1.53586e-011 -4.21895e-011 1   
     length 1.08218   
     axis -90 7.62852e-016 20   XYZ
    dof rx
    limits (-90.0 20.0)
  end
  begin
     id 6 
     name rhipjoint
     direction -0.75102 -0.589393 0.297631   
     length 2.78977  
     axis 0 0 0  XYZ 
  end
  begin
     id 7 
     name rfemur
     direction -0.34202 -0.939693 0   
     length 7.46076   
     axis 0 0 -20   XYZ
    dof rx ry rz
    limits (-160.0 20.0)
           (-70.0 70.0)
           (-70.0 60.0)
  end
  begin
     id 8 
     name rtibia
     direction -0.34202 -0.939693 0   
     length 7.31726   
     axis 0 0 -20   XYZ
    dof rx
    limits (-10.0 170.0)
 end
 begin
     id 9 
     name rfoot
     direction -0.107991 -0.296704 0.948844   
     length 2.09388  
     axis -90 -7.62852e-016 -20   XYZ
    dof rx rz
    limits (-45.0 90.0)
           (-20.0 70.0)
  end
  begin
     id 10 
     name rtoes
     direction -1.53559e-011 -4.21911e-011 1   
     length 1.04433   
     axis -90 -7.62852e-016 -20   XYZ
    dof rx
    limits (-90.0 20.0)
  end
  begin
     id 11 
     name lowerback
     direction 0.0165164 0.98272 0.184358   
     length 1.71896   
     axis 0 0 0   XYZ
    dof rx ry rz
    limits (-20.0 45.0)
           (-30.0 30.0)
           (-30.0 30.0)
  end
  begin
     id 12 
     name upperback
     direction -0.00887249 0.992297 0.123566   
     length 1.71504   
     axis 0 0 0   XYZ
    dof rx ry rz
    limits (-20.0 45.0)
           (-30.0 30.0)
           (-30.0 30.0)
  end
  begin
     id 13 
     name thorax
     direction -0.0157026 0.998908 0.0440032   
     length 1.77022   
     axis 0 0 0   XYZ
    dof rx ry rz
    limits (-20.0 45.0)
           (-30.0 30.0)
           (-30.0 30.0)
  end
  begin
     id 14 
     name lowerneck
     direction -0.0238856 0.998137 0.0561411   
     length 1.89341   
     axis 0 0 0   XYZ
    dof rx ry rz
    limits (-20.0 45.0)
           (-30.0 30.0)
           (-30.0 30.0)
  end
  begin
     id 15 
     name upperneck
     direction 0.0276574 0.952253 -0.304056   
     length 1.86999   
     axis 0 0 0   XYZ
    dof rx ry rz
    limits (-20.0 45.0)
           (-30.0 30.0)
           (-30.0 30.0)
  end
  begin
     id 16
     name head
     direction 0.00800083 0.994258 -0.106712  
     length 1.91492  
     axis 0 0 0   XYZ
    dof rx ry rz
    limits (-20.0 45.0)
           (-30.0 30.0)
           (-30.0 30.0)
  end
  begin
     id 17 
     name lclavicle
     direction 0.97203 0.225407 0.06595  
     length 3.34889  
     axis 0 0 0   XYZ
    dof ry rz
    limits (-20.0 10.0)
           (0.0 20.0)
  end
  begin
     id 18 
     name lhumerus
     direction 1 -4.48973e-011 2.20267e-027   
     length 4.85645   
     axis 180 -30 -90   XYZ
    dof rx ry rz
    limits (-60.0 90.0)
           (-90.0 90.0)
           (-90.0 90.0)
  end
  begin
     id 19
     name lradius
     direction 1 -4.4897e-011 4.60472e-027   
     length 2.79874   
     axis 180 -30 -90   XYZ
    dof rx
    limits (-10.0 170.0)
  end
  begin
     id 20
     name lwrist
     direction 1 -4.48952e-011 1.14928e-026   
     length 1.39937   
     axis -6.29373e-015 90 90   XYZ
    dof ry
    limits (-180.0 0.0)
 end
  begin
     id 21 
     name lhand
     direction 1 -4.48967e-011 2.29886e-026   
     length 0.573398   
     axis -1.46689e-014 90 90   XYZ
    dof rx rz
    limits (-90.0 90.0)
           (-45.0 45.0)
  end
  begin
     id 22 
     name lfingers
     direction 1 -4.48955e-011 4.59726e-026   
     length 0.462289   
     axis -2.93383e-014 90 90   XYZ
    dof rx
    limits (0.0 90.0)
  end
  begin
     id 23
     name lthumb
     direction 0.707107 -6.34866e-011 0.707107   
     length 0.663757   
     axis -90 45 5.69224e-014   XYZ
    dof rx rz
    limits (-45.0 45.0)
           (-45.0 45.0)
  end
  begin
     id 24 
     name rclavicle
     direction -0.981571 0.157346 0.108443   
     length 3.35257  
     axis 0 0 0   XYZ 
    dof ry rz
    limits (-10.0 20.0)
           (-20.0 0.0)
  end
  begin
     id 25 
     name rhumerus
     direction -1 -4.48967e-011 8.58308e-029  
     length 4.67018   
     axis 180 30 90   XYZ
    dof rx ry rz
    limits (-90.0 60.0)
           (-90.0 90.0)
           (-90.0 90.0)
  end
  begin
     id 26 
     name rradius
     direction -1 -4.48958e-011 4.52548e-027   
     length 2.65534   
     axis 180 30 90   XYZ
    dof rx
    limits (-10.0 170.0)
  end
  begin
     id 27 
     name rwrist
     direction -1 -4.48977e-011 1.14952e-026   
     length 1.32767   
     axis -6.29373e-015 -90 -90   XYZ
    dof ry
    limits (-180.0 0.0)
  end
  begin
     id 28
     name rhand
     direction -1 -4.48924e-011 2.29804e-026   
     length 0.594069   
     axis -1.46689e-014 -90 -90   XYZ
    dof rx rz
    limits (-90.0 90.0)
           (-45.0 45.0)
  end
  begin
     id 29
     name rfingers
     direction -1 -4.48998e-011 4.59888e-026   
     length 0.478954   
     axis -2.93383e-014 -90 -90   XYZ
    dof rx
    limits (0.0 90.0)
  end
  begin
     id 30
     name rthumb
     direction -0.707107 -6.34933e-011 0.707107   
     length 0.687685   
     axis -90 -45 -5.69224e-014   XYZ
    dof rx rz
    limits (-45.0 45.0)
           (-45.0 45.0)
  end
:hierarchy
  begin
    root lhipjoint rhipjoint lowerback
    lhipjoint lfemur
    lfemur ltibia
    ltibia lfoot
    lfoot ltoes
    rhipjoint rfemur
    rfemur rtibia
    rtibia rfoot
    rfoot rtoes
    lowerback upperback
    upperback thorax
    thorax lowerneck lclavicle rclavicle
    lowerneck upperneck
    upperneck head
    lclavicle lhumerus
    lhumerus lradius
    lradius lwrist
    lwrist lhand lthumb
    lhand lfingers
    rclavicle rhumerus
    rhumerus rradius
    rradius rwrist
    rwrist rhand rthumb
    rhand rfingers
  end

#!OML:ASF E:\pregnant2\Project 1\Capture day 1\Session 1\pregnant2.ASF
:FULLY-SPECIFIED
:DEGREES
762
root -4.98965 2.28824 18.9565 -45.5831 -2.64846 3.09864
lowerback -11.4434 0.622758 1.41989
upperback -4.13823 0.643181 0.428612
thorax 2.10634 0.309547 -0.271662
lowerneck -7.69452 -3.39043 -6.45597
upperneck 46.0658 -4.32238 0.123391
head 19.1203 -3.03038 0.425635
rclavicle -5.1684e-015 1.98785e-015
rhumerus -105.357 11.7327 -95.667
rradius 103.626
rwrist 23.0008
rhand -37.9598 -13.1936
rfingers 7.12502
rthumb 169 137.115
lclavicle -5.1684e-015 1.98785e-015
lhumerus -93.4679 -13.1112 96.4552
lradius 92.4445
lwrist -6.84042
lhand -9.91823 12.7635
lfingers 7.12502
lthumb 196.062 -137.882
rfemur -92.7334 -7.51052 30.5269
rtibia 105.243
rfoot 25.2163 -15.752
rtoes 31.7478
lfemur -91.7074 0.586197 -23.8247
ltibia 106.135
lfoot 28.8615 -11.8441
ltoes -13.7105
763
root -4.97976 2.28959 18.9446 -45.6483 -2.74685 3.0933
lowerback -11.2849 0.687458 1.44744
upperback -4.21775 0.732101 0.302334
thorax 1.94063 0.351136 -0.408684
lowerneck -7.69934 -3.3689 -6.61805
upperneck 45.9653 -4.14502 -0.062709
head 19.0481 -3.01651 0.394412
rclavicle 5.96354e-015 6.36111e-015
rhumerus -105.548 12.0275 -97.3575
rradius 102.937
rwrist 22.7784
rhand -37.606 -14.735
rfingers 7.12502
rthumb 169.341 135.555
lclavicle 5.96354e-015 6.36111e-015
lhumerus -93.5152 -13.2245 96.4029
lradius 92.2643
lwrist -7.06835
lhand -10.0449 12.787
lfingers 7.12502
lthumb 195.94 -137.849
rfemur -92.5612 -7.43029 30.5044
rtibia 105.091
rfoot 25.2508 -15.7681
rtoes 31.6611
lfemur -91.5942 0.655446 -23.7964
ltibia 106.062
lfoot 28.8669 -11.834
ltoes -13.6723
764
root -4.97062 2.29066 18.9323 -45.7197 -2.85066 3.07436
lowerback -11.1378 0.736707 1.49097
upperback -4.29733 0.798236 0.194276
thorax 1.78096 0.381361 -0.538902
lowerneck -7.71184 -3.33596 -6.75178
upperneck 45.8857 -3.93721 -0.292553
head 18.9888 -2.991 0.341877
rclavicle -1.19271e-015 5.56597e-015
rhumerus -105.742 12.4758 -99.1434
rradius 102.164
rwrist 22.851
rhand -37.0281 -15.8709
rfingers 7.12502
rthumb 169.898 134.392
lclavicle -1.19271e-015 5.56597e-015
lhumerus -93.5687 -13.3135 96.3565
lradius 92.1011
lwrist -7.25502
lhand -10.1566 12.7977
lfingers 7.12502
lthumb 195.833 -137.83
rfemur -92.3793 -7.35517 30.5032
rtibia 104.939
rfoot 25.2627 -15.8013
rtoes 31.5832
lfemur -91.4781 0.722877 -23.7464
ltibia 105.991
lfoot 28.8694 -11.8143
ltoes -13.6529
765
root -4.96226 2.29117 18.9197 -45.7981 -2.94586 3.05349
lowerback -11.0091 0.75825 1.52062
upperback -4.3715 0.828504 0.107661
thorax 1.63601 0.3941 -0.643499
lowerneck -7.76127 -3.28818 -6.82791
upperneck 45.843 -3.67982 -0.607772
head 18.9583 -2.94681 0.244797
rclavicle -2.38542e-015 -5.96354e-016
rhumerus -105.925 13.0898 -100.982
rradius 101.332
rwrist 23.1116
rhand -36.321 -16.4432
rfingers 7.12502
rthumb 170.58 133.787
lclavicle -2.38542e-015 -5.96354e-016
lhumerus -93.6101 -13.358 96.3011
lradius 91.9463
lwrist -7.39609
lhand -10.2292 12.7816
lfingers 7.12502
lthumb 195.763 -137.84
rfemur -92.1964 -7.29075 30.5074
rtibia 104.794
rfoot 25.2688 -15.811
rtoes 31.4558
lfemur -91.3561 0.782783 -23.6929
ltibia 105.92
lfoot 28.8651 -11.786
ltoes -13.6564
766
root -4.95469 2.29088 18.9072 -45.8861 -3.02551 3.04152
lowerback -10.9015 0.74564 1.52592
upperback -4.43642 0.815567 0.0385464
thorax 1.51069 0.385929 -0.721241
lowerneck -7.84905 -3.21489 -6.85435
upperneck 45.8234 -3.36911 -0.970676
head 18.9498 -2.87846 0.123941
rclavicle 4.37326e-015 -2.18663e-015
rhumerus -106.094 13.8474 -102.849
rradius 100.5
rwrist 23.3648
rhand -35.5947 -16.4163
rfingers 7.12502
rthumb 171.281 133.784
lclavicle 4.37326e-015 -2.18663e-015
lhumerus -93.628 -13.3517 96.2181
lradius 91.7968
lwrist -7.48518
lhand -10.243 12.7218
lfingers 7.12502
lthumb 195.75 -137.899
rfemur -92.0152 -7.23694 30.506
rtibia 104.658
rfoot 25.2704 -15.8021
rtoes 31.2948
lfemur -91.225 0.835918 -23.648
ltibia 105.849
lfoot 28.8561 -11.7399
ltoes -13.6769
767
root -4.948 2.28951 18.8947 -45.9891 -3.07972 3.05142
lowerback -10.8125 0.719394 1.50887
upperback -4.49104 0.786477 -0.03135
thorax 1.40551 0.37012 -0.788772
lowerneck -7.96016 -3.12951 -6.83146
upperneck 45.8211 -3.03345 -1.36945
head 18.958 -2.79618 -0.0196166
rclavicle 2.78299e-015 -3.97569e-016
rhumerus -106.251 14.6419 -104.703
rradius 99.7529
rwrist 23.386
rhand -34.905 -15.9381
rfingers 7.12502
rthumb 171.947 134.235
lclavicle 2.78299e-015 -3.97569e-016
lhumerus -93.6189 -13.3529 96.1227
lradius 91.6426
lwrist -7.51566
lhand -10.1962 12.6142
lfingers 7.12502
lthumb 195.795 -138.01
rfemur -91.837 -7.19525 30.4843
rtibia 104.536
rfoot 25.2698 -15.7804
rtoes 31.1185
lfemur -91.077 0.882813 -23.6284
ltibia 105.779
lfoot 28.8373 -11.681
ltoes -13.7197
768
root -4.94231 2.28672 18.8825 -46.1112 -3.12174 3.07607
lowerback -10.7325 0.723961 1.50527
upperback -4.54871 0.796077 -0.104182
thorax 1.30318 0.373183 -0.862182
lowerneck -8.0099 -3.05528 -6.83934
upperneck 45.8184 -2.72438 -1.74232
head 18.9549 -2.7268 -0.148379
rclavicle 9.54166e-015 3.18055e-015
rhumerus -106.419 15.3166 -106.447
rradius 99.1788
rwrist 22.9784
rhand -34.2827 -15.2047
rfingers 7.12502
rthumb 172.548 134.947
lclavicle 9.54166e-015 3.18055e-015
lhumerus -93.6129 -13.4531 96.0919
lradius 91.4764
lwrist -7.48454
lhand -10.0917 12.4714
lfingers 7.12502
lthumb 195.895 -138.161
rfemur -91.652 -7.15801 30.4557
rtibia 104.427
rfoot 25.2551 -15.7789
rtoes 30.9946
lfemur -90.914 0.933582 -23.6199
ltibia 105.713
lfoot 28.8095 -11.6167
ltoes -13.786
769
root -4.93776 2.28232 18.8706 -46.2613 -3.15957 3.11072
lowerback -10.6508 0.781381 1.54576
upperback -4.60387 0.870729 -0.192654
thorax 1.20517 0.407709 -0.969082
lowerneck -7.99656 -3.0059 -6.88158
upperneck 45.8109 -2.47188 -2.07136
head 18.9375 -2.68035 -0.258058
rclavicle -4.96962e-015 -6.55989e-015
rhumerus -106.572 15.7824 -108.022
rradius 98.7972
rwrist 22.0919
rhand -33.7669 -14.4415
rfingers 7.12502
rthumb 173.045 135.693
lclavicle -4.96962e-015 -6.55989e-015
lhumerus -93.6059 -13.7049 96.1392
lradius 91.2921
lwrist -7.39119
lhand -9.94283 12.3085
lfingers 7.12502
lthumb 196.039 -138.335
rfemur -91.4465 -7.12221 30.428
rtibia 104.325
rfoot 25.2471 -15.7681
rtoes 30.8599
lfemur -90.7284 0.994662 -23.6138
ltibia 105.653
lfoot 28.7739 -11.5561
ltoes -13.8698
770
root -4.9345 2.27632 18.8592 -46.4319 -3.17526 3.16702
lowerback -10.572 0.898377 1.61077
upperback -4.65594 1.02123 -0.302593
thorax 1.11535 0.479158 -1.10347
lowerneck -7.91344 -2.98817 -6.97054
upperneck 45.788 -2.29048 -2.34356
head 18.8968 -2.66262 -0.342006
rclavicle 5.76476e-015 -8.34896e-015
rhumerus -106.686 16.004 -109.357
rradius 98.6028
rwrist 20.7866
rhand -33.3613 -13.7185
rfingers 7.12502
rthumb 173.437 136.403
lclavicle 5.76476e-015 -8.34896e-015
lhumerus -93.5942 -14.126 96.2811
lradius 91.0872
lwrist -7.23785
lhand -9.76276 12.1468
lfingers 7.12502
lthumb 196.212 -138.511
rfemur -91.2382 -7.09363 30.3788
rtibia 104.236
rfoot 25.2355 -15.7916
rtoes 30.8115
lfemur -90.5225 1.05613 -23.6315
ltibia 105.594
lfoot 28.7311 -11.494
ltoes -13.9732
771
root -4.93271 2.26857 18.8482 -46.631 -3.19256 3.2161
lowerback -10.481 1.06004 1.72465
upperback -4.69805 1.2258 -0.414709
thorax 1.03284 0.576696 -1.26198
lowerneck -7.78482 -2.99118 -7.08909
upperneck 45.7461 -2.1564 -2.57738
head 18.8349 -2.663 -0.408264
rclavicle 2.78299e-015 7.95139e-015
rhumerus -106.746 16.0262 -110.405
rradius 98.5431
rwrist 19.2084
rhand -33.0771 -13.0486
rfingers 7.12502
rthumb 173.711 137.065
lclavicle 2.78299e-015 7.95139e-015
lhumerus -93.5718 -14.6759 96.4989
lradius 90.8668
lwrist -7.02719
lhand -9.55947 12.0113
lfingers 7.12502
lthumb 196.408 -138.663
rfemur -91.0039 -7.06925 30.3418
rtibia 104.151
rfoot 25.2272 -15.8357
rtoes 30.8122
lfemur -90.2969 1.12446 -23.6335
ltibia 105.541
lfoot 28.687 -11.4362
ltoes -14.0774
772
root -4.93253 2.25924 18.8376 -46.8529 -3.20443 3.2509
lowerback -10.3817 1.24224 1.87006
upperback -4.71773 1.45456 -0.524273
thorax 0.97218 0.686086 -1.4333
lowerneck -7.66456 -3.00347 -7.18936
upperneck 45.6788 -2.04683 -2.79862
head 18.7593 -2.6667 -0.474557
rclavicle -1.09332e-015 7.70291e-015
rhumerus -106.717 15.9277 -111.178
rradius 98.5681
rwrist 17.5603
rhand -32.9353 -12.441
rfingers 7.12502
rthumb 173.848 137.668
lclavicle -1.09332e-015 7.70291e-015
lhumerus -93.5086 -15.3085 96.7542
lradius 90.6277
lwrist -6.77058
lhand -9.36013 11.9132
lfingers 7.12502
lthumb 196.6 -138.777
rfemur -90.7512 -7.0558 30.3139
rtibia 104.071
rfoot 25.2225 -15.9074
rtoes 30.8629
lfemur -90.0563 1.18772 -23.6204
ltibia 105.492
lfoot 28.6479 -11.3818
ltoes -14.1824
773
root -4.93401 2.24849 18.8273 -47.0989 -3.21393 3.25464
lowerback -10.2727 1.40659 2.02672
upperback -4.70773 1.65879 -0.597087
thorax 0.93708 0.784056 -1.57599
lowerneck -7.59639 -3.00088 -7.27077
upperneck 45.5921 -1.90687 -3.0293
head 18.6848 -2.6541 -0.543221
rclavicle -4.96962e-017 -7.20594e-016
rhumerus -106.646 15.8223 -111.717
rradius 98.7075
rwrist 16.0353
rhand -32.8744 -12.102
rfingers 7.12502
rthumb 173.907 138.006
lclavicle -4.96962e-017 -7.20594e-016
lhumerus -93.3876 -15.9237 97.0219
lradius 90.372
lwrist -6.47391
lhand -9.17547 11.8603
lfingers 7.12502
lthumb 196.778 -138.845
rfemur -90.474 -7.06058 30.3061
rtibia 103.993
rfoot 25.2205 -15.9943
rtoes 30.9395
lfemur -89.8007 1.23701 -23.5763
ltibia 105.448
lfoot 28.6158 -11.3375
ltoes -14.3014
